<?xml version="1.0" encoding="UTF-8" standalone="no"?>
<!DOCTYPE svg PUBLIC "-//W3C//DTD SVG 1.1//EN"
 "http://www.w3.org/Graphics/SVG/1.1/DTD/svg11.dtd">
<!-- Generated by graphviz version 2.38.0 (20140413.2041)
 -->
<!-- Title: snakemake_dag Pages: 1 -->
<svg width="800pt" height="260pt"
 viewBox="0.00 0.00 800.00 260.00" xmlns="http://www.w3.org/2000/svg" xmlns:xlink="http://www.w3.org/1999/xlink">
<g id="graph0" class="graph" transform="scale(1 1) rotate(0) translate(4 256)">
<title>snakemake_dag</title>
<polygon fill="white" stroke="none" points="-4,4 -4,-256 796,-256 796,4 -4,4"/>
<!-- 0 -->
<g id="node1" class="node"><title>0</title>
<path fill="none" stroke="#567bd8" stroke-width="2" d="M466,-36C466,-36 436,-36 436,-36 430,-36 424,-30 424,-24 424,-24 424,-12 424,-12 424,-6 430,-0 436,-0 436,-0 466,-0 466,-0 472,-0 478,-6 478,-12 478,-12 478,-24 478,-24 478,-30 472,-36 466,-36"/>
<text text-anchor="middle" x="451" y="-15.5" font-family="sans" font-size="10.00">all</text>
</g>
<!-- 1 -->
<g id="node2" class="node"><title>1</title>
<path fill="none" stroke="#d8a456" stroke-width="2" d="M42,-108C42,-108 12,-108 12,-108 6,-108 0,-102 0,-96 0,-96 0,-84 0,-84 0,-78 6,-72 12,-72 12,-72 42,-72 42,-72 48,-72 54,-78 54,-84 54,-84 54,-96 54,-96 54,-102 48,-108 42,-108"/>
<text text-anchor="middle" x="27" y="-87.5" font-family="sans" font-size="10.00">fastqc</text>
</g>
<!-- 1&#45;&gt;0 -->
<g id="edge3" class="edge"><title>1&#45;&gt;0</title>
<path fill="none" stroke="grey" stroke-width="2" d="M54.1768,-75.1139C57.1077,-73.9351 60.0845,-72.8652 63,-72 187.92,-34.9305 343.271,-23.6598 413.467,-20.336"/>
<polygon fill="grey" stroke="grey" stroke-width="2" points="413.755,-23.8267 423.589,-19.8845 413.443,-16.8337 413.755,-23.8267"/>
</g>
<!-- 2 -->
<g id="node3" class="node"><title>2</title>
<path fill="none" stroke="#56d8b9" stroke-width="2" d="M610,-108C610,-108 580,-108 580,-108 574,-108 568,-102 568,-96 568,-96 568,-84 568,-84 568,-78 574,-72 580,-72 580,-72 610,-72 610,-72 616,-72 622,-78 622,-84 622,-84 622,-96 622,-96 622,-102 616,-108 610,-108"/>
<text text-anchor="middle" x="595" y="-87.5" font-family="sans" font-size="10.00">quast</text>
</g>
<!-- 2&#45;&gt;0 -->
<g id="edge8" class="edge"><title>2&#45;&gt;0</title>
<path fill="none" stroke="grey" stroke-width="2" d="M567.915,-75.8335C545.231,-64.8066 512.643,-48.9655 487.632,-36.8072"/>
<polygon fill="grey" stroke="grey" stroke-width="2" points="488.977,-33.5696 478.453,-32.3454 485.917,-39.8652 488.977,-33.5696"/>
</g>
<!-- 3 -->
<g id="node4" class="node"><title>3</title>
<path fill="none" stroke="#d87d56" stroke-width="2" d="M682,-108C682,-108 652,-108 652,-108 646,-108 640,-102 640,-96 640,-96 640,-84 640,-84 640,-78 646,-72 652,-72 652,-72 682,-72 682,-72 688,-72 694,-78 694,-84 694,-84 694,-96 694,-96 694,-102 688,-108 682,-108"/>
<text text-anchor="middle" x="667" y="-87.5" font-family="sans" font-size="10.00">mlst</text>
</g>
<!-- 3&#45;&gt;0 -->
<g id="edge2" class="edge"><title>3&#45;&gt;0</title>
<path fill="none" stroke="grey" stroke-width="2" d="M639.672,-75.5601C636.771,-74.2943 633.842,-73.082 631,-72 582.578,-53.5655 524.846,-37.5797 488.062,-28.1153"/>
<polygon fill="grey" stroke="grey" stroke-width="2" points="488.822,-24.6972 478.268,-25.6222 487.095,-31.4809 488.822,-24.6972"/>
</g>
<!-- 4 -->
<g id="node5" class="node"><title>4</title>
<path fill="none" stroke="#56d86b" stroke-width="2" d="M163.5,-108C163.5,-108 84.5,-108 84.5,-108 78.5,-108 72.5,-102 72.5,-96 72.5,-96 72.5,-84 72.5,-84 72.5,-78 78.5,-72 84.5,-72 84.5,-72 163.5,-72 163.5,-72 169.5,-72 175.5,-78 175.5,-84 175.5,-84 175.5,-96 175.5,-96 175.5,-102 169.5,-108 163.5,-108"/>
<text text-anchor="middle" x="124" y="-87.5" font-family="sans" font-size="10.00">coverage_illumina</text>
</g>
<!-- 4&#45;&gt;0 -->
<g id="edge5" class="edge"><title>4&#45;&gt;0</title>
<path fill="none" stroke="grey" stroke-width="2" d="M175.514,-74.3505C178.718,-73.5305 181.899,-72.74 185,-72 265.987,-52.6755 361.998,-34.7614 413.642,-25.5284"/>
<polygon fill="grey" stroke="grey" stroke-width="2" points="414.433,-28.9429 423.665,-23.7462 413.207,-22.0511 414.433,-28.9429"/>
</g>
<!-- 5 -->
<g id="node6" class="node"><title>5</title>
<path fill="none" stroke="#d85656" stroke-width="2" d="M294,-108C294,-108 206,-108 206,-108 200,-108 194,-102 194,-96 194,-96 194,-84 194,-84 194,-78 200,-72 206,-72 206,-72 294,-72 294,-72 300,-72 306,-78 306,-84 306,-84 306,-96 306,-96 306,-102 300,-108 294,-108"/>
<text text-anchor="middle" x="250" y="-87.5" font-family="sans" font-size="10.00">coverage_nanopore</text>
</g>
<!-- 5&#45;&gt;0 -->
<g id="edge1" class="edge"><title>5&#45;&gt;0</title>
<path fill="none" stroke="grey" stroke-width="2" d="M298.913,-71.9656C334.508,-59.5694 381.948,-43.0481 414.319,-31.7743"/>
<polygon fill="grey" stroke="grey" stroke-width="2" points="415.56,-35.0487 423.852,-28.4544 413.257,-28.4381 415.56,-35.0487"/>
</g>
<!-- 6 -->
<g id="node7" class="node"><title>6</title>
<path fill="none" stroke="#8fd856" stroke-width="2" d="M780,-108C780,-108 724,-108 724,-108 718,-108 712,-102 712,-96 712,-96 712,-84 712,-84 712,-78 718,-72 724,-72 724,-72 780,-72 780,-72 786,-72 792,-78 792,-84 792,-84 792,-96 792,-96 792,-102 786,-108 780,-108"/>
<text text-anchor="middle" x="752" y="-87.5" font-family="sans" font-size="10.00">abricate_ncbi</text>
</g>
<!-- 6&#45;&gt;0 -->
<g id="edge6" class="edge"><title>6&#45;&gt;0</title>
<path fill="none" stroke="grey" stroke-width="2" d="M711.751,-74.5829C708.803,-73.6664 705.863,-72.7944 703,-72 627.589,-51.079 537.482,-33.9881 488.037,-25.2713"/>
<polygon fill="grey" stroke="grey" stroke-width="2" points="488.576,-21.8125 478.122,-23.54 487.371,-28.7082 488.576,-21.8125"/>
</g>
<!-- 7 -->
<g id="node8" class="node"><title>7</title>
<path fill="none" stroke="#b6d856" stroke-width="2" d="M393.5,-108C393.5,-108 336.5,-108 336.5,-108 330.5,-108 324.5,-102 324.5,-96 324.5,-96 324.5,-84 324.5,-84 324.5,-78 330.5,-72 336.5,-72 336.5,-72 393.5,-72 393.5,-72 399.5,-72 405.5,-78 405.5,-84 405.5,-84 405.5,-96 405.5,-96 405.5,-102 399.5,-108 393.5,-108"/>
<text text-anchor="middle" x="365" y="-87.5" font-family="sans" font-size="10.00">abricate_vfdb</text>
</g>
<!-- 7&#45;&gt;0 -->
<g id="edge4" class="edge"><title>7&#45;&gt;0</title>
<path fill="none" stroke="grey" stroke-width="2" d="M386.258,-71.6966C397.089,-62.8807 410.418,-52.0321 422.16,-42.4742"/>
<polygon fill="grey" stroke="grey" stroke-width="2" points="424.44,-45.1316 429.986,-36.1043 420.021,-39.7026 424.44,-45.1316"/>
</g>
<!-- 8 -->
<g id="node9" class="node"><title>8</title>
<path fill="none" stroke="#56d0d8" stroke-width="2" d="M466,-108C466,-108 436,-108 436,-108 430,-108 424,-102 424,-96 424,-96 424,-84 424,-84 424,-78 430,-72 436,-72 436,-72 466,-72 466,-72 472,-72 478,-78 478,-84 478,-84 478,-96 478,-96 478,-102 472,-108 466,-108"/>
<text text-anchor="middle" x="451" y="-87.5" font-family="sans" font-size="10.00">prokka</text>
</g>
<!-- 8&#45;&gt;0 -->
<g id="edge9" class="edge"><title>8&#45;&gt;0</title>
<path fill="none" stroke="grey" stroke-width="2" d="M451,-71.6966C451,-63.9827 451,-54.7125 451,-46.1124"/>
<polygon fill="grey" stroke="grey" stroke-width="2" points="454.5,-46.1043 451,-36.1043 447.5,-46.1044 454.5,-46.1043"/>
</g>
<!-- 9 -->
<g id="node10" class="node"><title>9</title>
<path fill="none" stroke="#56d892" stroke-width="2" d="M538,-108C538,-108 508,-108 508,-108 502,-108 496,-102 496,-96 496,-96 496,-84 496,-84 496,-78 502,-72 508,-72 508,-72 538,-72 538,-72 544,-72 550,-78 550,-84 550,-84 550,-96 550,-96 550,-102 544,-108 538,-108"/>
<text text-anchor="middle" x="523" y="-87.5" font-family="sans" font-size="10.00">gc</text>
</g>
<!-- 9&#45;&gt;0 -->
<g id="edge7" class="edge"><title>9&#45;&gt;0</title>
<path fill="none" stroke="grey" stroke-width="2" d="M505.202,-71.6966C496.396,-63.135 485.618,-52.6562 475.999,-43.3045"/>
<polygon fill="grey" stroke="grey" stroke-width="2" points="478.203,-40.5657 468.593,-36.1043 473.323,-45.5846 478.203,-40.5657"/>
</g>
<!-- 10 -->
<g id="node11" class="node"><title>10</title>
<path fill="none" stroke="#68d856" stroke-width="2" d="M468.5,-180C468.5,-180 433.5,-180 433.5,-180 427.5,-180 421.5,-174 421.5,-168 421.5,-168 421.5,-156 421.5,-156 421.5,-150 427.5,-144 433.5,-144 433.5,-144 468.5,-144 468.5,-144 474.5,-144 480.5,-150 480.5,-156 480.5,-156 480.5,-168 480.5,-168 480.5,-174 474.5,-180 468.5,-180"/>
<text text-anchor="middle" x="451" y="-159.5" font-family="sans" font-size="10.00">unicycler</text>
</g>
<!-- 10&#45;&gt;2 -->
<g id="edge10" class="edge"><title>10&#45;&gt;2</title>
<path fill="none" stroke="grey" stroke-width="2" d="M480.837,-146.496C503.382,-135.537 534.443,-120.438 558.475,-108.755"/>
<polygon fill="grey" stroke="grey" stroke-width="2" points="560.173,-111.821 567.637,-104.302 557.113,-105.526 560.173,-111.821"/>
</g>
<!-- 10&#45;&gt;3 -->
<g id="edge11" class="edge"><title>10&#45;&gt;3</title>
<path fill="none" stroke="grey" stroke-width="2" d="M480.77,-153.746C514.947,-145.092 572.736,-129.466 630.1,-108.067"/>
<polygon fill="grey" stroke="grey" stroke-width="2" points="631.561,-111.256 639.672,-104.44 629.081,-104.71 631.561,-111.256"/>
</g>
<!-- 10&#45;&gt;4 -->
<g id="edge12" class="edge"><title>10&#45;&gt;4</title>
<path fill="none" stroke="grey" stroke-width="2" d="M421.321,-155.839C373.695,-147.394 277.091,-129.599 185.245,-107.961"/>
<polygon fill="grey" stroke="grey" stroke-width="2" points="186.052,-104.555 175.514,-105.65 184.434,-111.366 186.052,-104.555"/>
</g>
<!-- 10&#45;&gt;5 -->
<g id="edge15" class="edge"><title>10&#45;&gt;5</title>
<path fill="none" stroke="grey" stroke-width="2" d="M421.342,-150.671C391.77,-140.373 345.548,-124.275 308.561,-111.394"/>
<polygon fill="grey" stroke="grey" stroke-width="2" points="309.48,-108.008 298.885,-108.025 307.178,-114.619 309.48,-108.008"/>
</g>
<!-- 10&#45;&gt;6 -->
<g id="edge16" class="edge"><title>10&#45;&gt;6</title>
<path fill="none" stroke="grey" stroke-width="2" d="M480.778,-156C526.468,-148.056 616.711,-131.296 701.924,-108.125"/>
<polygon fill="grey" stroke="grey" stroke-width="2" points="703.04,-111.448 711.751,-105.417 701.18,-104.699 703.04,-111.448"/>
</g>
<!-- 10&#45;&gt;7 -->
<g id="edge17" class="edge"><title>10&#45;&gt;7</title>
<path fill="none" stroke="grey" stroke-width="2" d="M429.742,-143.697C418.911,-134.881 405.582,-124.032 393.84,-114.474"/>
<polygon fill="grey" stroke="grey" stroke-width="2" points="395.979,-111.703 386.014,-108.104 391.56,-117.132 395.979,-111.703"/>
</g>
<!-- 10&#45;&gt;8 -->
<g id="edge18" class="edge"><title>10&#45;&gt;8</title>
<path fill="none" stroke="grey" stroke-width="2" d="M451,-143.697C451,-135.983 451,-126.712 451,-118.112"/>
<polygon fill="grey" stroke="grey" stroke-width="2" points="454.5,-118.104 451,-108.104 447.5,-118.104 454.5,-118.104"/>
</g>
<!-- 10&#45;&gt;9 -->
<g id="edge19" class="edge"><title>10&#45;&gt;9</title>
<path fill="none" stroke="grey" stroke-width="2" d="M468.798,-143.697C477.604,-135.135 488.382,-124.656 498.001,-115.304"/>
<polygon fill="grey" stroke="grey" stroke-width="2" points="500.677,-117.585 505.407,-108.104 495.797,-112.566 500.677,-117.585"/>
</g>
<!-- 11 -->
<g id="node12" class="node"><title>11</title>
<path fill="none" stroke="#d8cb56" stroke-width="2" d="M265,-252C265,-252 235,-252 235,-252 229,-252 223,-246 223,-240 223,-240 223,-228 223,-228 223,-222 229,-216 235,-216 235,-216 265,-216 265,-216 271,-216 277,-222 277,-228 277,-228 277,-240 277,-240 277,-246 271,-252 265,-252"/>
<text text-anchor="middle" x="250" y="-231.5" font-family="sans" font-size="10.00">fastp</text>
</g>
<!-- 11&#45;&gt;4 -->
<g id="edge13" class="edge"><title>11&#45;&gt;4</title>
<path fill="none" stroke="grey" stroke-width="2" d="M234.801,-215.871C212.665,-190.924 171.427,-144.45 145.982,-115.773"/>
<polygon fill="grey" stroke="grey" stroke-width="2" points="148.508,-113.346 139.252,-108.189 143.272,-117.992 148.508,-113.346"/>
</g>
<!-- 11&#45;&gt;10 -->
<g id="edge20" class="edge"><title>11&#45;&gt;10</title>
<path fill="none" stroke="grey" stroke-width="2" d="M277.108,-223.559C311.781,-211.484 372.083,-190.484 411.77,-176.662"/>
<polygon fill="grey" stroke="grey" stroke-width="2" points="413.095,-179.907 421.387,-173.313 410.793,-173.296 413.095,-179.907"/>
</g>
<!-- 12 -->
<g id="node13" class="node"><title>12</title>
<path fill="none" stroke="#56a9d8" stroke-width="2" d="M265,-180C265,-180 235,-180 235,-180 229,-180 223,-174 223,-168 223,-168 223,-156 223,-156 223,-150 229,-144 235,-144 235,-144 265,-144 265,-144 271,-144 277,-150 277,-156 277,-156 277,-168 277,-168 277,-174 271,-180 265,-180"/>
<text text-anchor="middle" x="250" y="-159.5" font-family="sans" font-size="10.00">filtlong</text>
</g>
<!-- 11&#45;&gt;12 -->
<g id="edge21" class="edge"><title>11&#45;&gt;12</title>
<path fill="none" stroke="grey" stroke-width="2" d="M250,-215.697C250,-207.983 250,-198.712 250,-190.112"/>
<polygon fill="grey" stroke="grey" stroke-width="2" points="253.5,-190.104 250,-180.104 246.5,-190.104 253.5,-190.104"/>
</g>
<!-- 12&#45;&gt;5 -->
<g id="edge14" class="edge"><title>12&#45;&gt;5</title>
<path fill="none" stroke="grey" stroke-width="2" d="M250,-143.697C250,-135.983 250,-126.712 250,-118.112"/>
<polygon fill="grey" stroke="grey" stroke-width="2" points="253.5,-118.104 250,-108.104 246.5,-118.104 253.5,-118.104"/>
</g>
</g>
</svg>
